<?xml version="1.0" encoding="UTF-8"?>
<svg version="1.1" xmlns="http://www.w3.org/2000/svg" width="468" height="285">
<path d="M0 0 C0.66 0 1.32 0 2 0 C2 0.66 2 1.32 2 2 C2.88042969 1.91621094 3.76085937 1.83242188 4.66796875 1.74609375 C5.82941406 1.64425781 6.99085938 1.54242188 8.1875 1.4375 C9.33605469 1.33308594 10.48460937 1.22867187 11.66796875 1.12109375 C14.68631199 1.01140015 17.08923936 1.25997611 20 2 C20 1.34 20 0.68 20 0 C20.99 0 21.98 0 23 0 C23 0.66 23 1.32 23 2 C24.051875 1.814375 25.10375 1.62875 26.1875 1.4375 C29.57119882 1.04920669 31.76425888 1.11752515 35 2 C35 2.66 35 3.32 35 4 C36.1446875 3.6596875 36.1446875 3.6596875 37.3125 3.3125 C42.64584764 2.86052139 46.94116046 4.40083424 52 6 C53.16144531 6.34160156 54.32289063 6.68320313 55.51953125 7.03515625 C63.77032134 9.58382963 71.13410281 12.90698155 78.66015625 17.1328125 C80.81955221 18.34005375 83.01485097 19.48605378 85.24609375 20.5546875 C87.75190108 21.86979206 89.10774453 22.9729685 91 25 C92.29612546 25.85857992 93.61071718 26.68960007 94.9375 27.5 C103.78380597 33.29635408 111.29113806 40.87874608 118 49 C118.66 49.33 119.32 49.66 120 50 C120 50.99 120 51.98 120 53 C120.99 53.33 121.98 53.66 123 54 C123.68486725 55.32407669 124.34870203 56.65909241 125 58 C125.61359375 58.59425781 126.2271875 59.18851563 126.859375 59.80078125 C135.24323615 68.41412765 141.93783728 83.50345927 145 95 C145.46815566 96.39956481 145.94589211 97.7959997 146.4375 99.1875 C149.07029547 107.04558853 151.34080419 114.65029724 151 123 C151.44985399 125.82765363 152.09302826 128.27908479 153 131 C153.23364419 134.91265665 153.18517838 138.83110482 153.1875 142.75 C153.19974609 143.8225 153.21199219 144.895 153.22460938 146 C153.235288 151.78069637 152.83374749 156.52763544 151 162 C150.95977609 164.3329866 150.95679753 166.66706666 151 169 C150.43902932 172.83329965 149.26812044 176.34482932 148 180 C147.67 180.99 147.34 181.98 147 183 C146.67 183.99 146.34 184.98 146 186 C145.69964844 186.91652344 145.39929688 187.83304688 145.08984375 188.77734375 C143.97755321 192.06637493 142.79292648 195.31586067 141.5625 198.5625 C141.15128906 199.65691406 140.74007813 200.75132812 140.31640625 201.87890625 C139.08450507 204.79964524 137.6935598 207.32755397 136 210 C135.505 210.825 135.01 211.65 134.5 212.5 C133 215 131.5 217.5 130 220 C129.484375 220.886875 128.96875 221.77375 128.4375 222.6875 C126.88723613 225.18140274 125.07056193 226.92943807 123 229 C122.2884375 230.2065625 122.2884375 230.2065625 121.5625 231.4375 C119.70597183 234.4822062 117.58358617 236.52874366 115 239 C113.88431641 240.14662109 113.88431641 240.14662109 112.74609375 241.31640625 C111.94300781 242.14011719 111.13992188 242.96382812 110.3125 243.8125 C109.54550781 244.60269531 108.77851563 245.39289063 107.98828125 246.20703125 C106 248 106 248 104 248 C104 248.66 104 249.32 104 250 C101.92926698 251.65356345 99.86242483 253.18169645 97.6875 254.6875 C97.05610107 255.12940674 96.42470215 255.57131348 95.77416992 256.02661133 C93.85607171 257.36099304 91.92955581 258.68225457 90 260 C88.91976563 260.7425 87.83953125 261.485 86.7265625 262.25 C81.21764688 265.91276427 81.21764688 265.91276427 79 267 C78.01 266.67 77.02 266.34 76 266 C75.67 266.99 75.34 267.98 75 269 C74.01 268.67 73.02 268.34 72 268 C71.67 268.99 71.34 269.98 71 271 C69.0625 271.75 69.0625 271.75 67 272 C66.34 271.67 65.68 271.34 65 271 C64.67 271.99 64.34 272.98 64 274 C61.63671875 275.1328125 61.63671875 275.1328125 58.6875 276.125 C57.72199219 276.45757812 56.75648438 276.79015625 55.76171875 277.1328125 C51.71566379 278.4032852 47.6620101 279.31317935 43.5 280.125 C42.5615625 280.31320312 41.623125 280.50140625 40.65625 280.6953125 C38.07257199 280.99167557 36.44159167 280.81770287 34 280 C34 280.66 34 281.32 34 282 C32.58456585 282.19658808 31.16755969 282.38187546 29.75 282.5625 C28.96109375 282.66691406 28.1721875 282.77132813 27.359375 282.87890625 C24.99467126 283.00027349 23.2488963 282.69633257 21 282 C21 282.66 21 283.32 21 284 C20.01 283.67 19.02 283.34 18 283 C15.77425665 282.77548542 13.54418481 282.59217122 11.3125 282.4375 C10.13300781 282.35371094 8.95351563 282.26992188 7.73828125 282.18359375 C6.83464844 282.12300781 5.93101562 282.06242187 5 282 C5 282.66 5 283.32 5 284 C4.01 284 3.02 284 2 284 C2 283.34 2 282.68 2 282 C0.783125 282.185625 -0.43375 282.37125 -1.6875 282.5625 C-5.02977939 282.98993182 -7.71968417 282.92258883 -11 282 C-11 281.34 -11 280.68 -11 280 C-11.85078125 280.19335938 -12.7015625 280.38671875 -13.578125 280.5859375 C-17.38306825 281.04635301 -20.04633291 280.55518367 -23.75 279.625 C-24.87921875 279.34914063 -26.0084375 279.07328125 -27.171875 278.7890625 C-30 278 -30 278 -32 277 C-32 276.34 -32 275.68 -32 275 C-32.53625 275.226875 -33.0725 275.45375 -33.625 275.6875 C-37.11187779 276.14629971 -38.9101993 274.65933741 -42 273 C-44.53073391 271.95086664 -47.07868454 270.95546347 -49.6328125 269.96484375 C-57.09844349 266.92192155 -63.82927465 262.59208295 -70.375 257.9375 C-71.00277344 257.50373047 -71.63054687 257.06996094 -72.27734375 256.62304688 C-76.88111445 253.35665665 -76.88111445 253.35665665 -78 250 C-78.56976563 249.87882813 -79.13953125 249.75765625 -79.7265625 249.6328125 C-83.18132347 248.671178 -84.89902635 246.42032865 -87.375 243.875 C-87.85960693 243.37871094 -88.34421387 242.88242188 -88.84350586 242.37109375 C-93.2428952 237.83092984 -97.48650337 233.27024495 -101 228 C-103.19389066 227.53093483 -103.19389066 227.53093483 -105.76928711 227.58349609 C-106.76049057 227.56692963 -107.75169403 227.55036316 -108.77293396 227.53329468 C-109.84688919 227.53004181 -110.92084442 227.52678894 -112.02734375 227.5234375 C-113.12720108 227.50785797 -114.22705841 227.49227844 -115.36024475 227.47622681 C-118.88598895 227.42856197 -122.41153431 227.40090329 -125.9375 227.375 C-129.45975411 227.33852731 -132.98189515 227.29789198 -136.50404358 227.25234985 C-138.69866863 227.22510464 -140.89337625 227.20376149 -143.08811951 227.18881226 C-144.08247513 227.17855011 -145.07683075 227.16828796 -146.10131836 227.15771484 C-146.97686874 227.15121918 -147.85241913 227.14472351 -148.75450134 227.13803101 C-154.03050337 226.81371468 -158.68275706 223.75790844 -162.8125 220.625 C-164.53286033 218.27082271 -165.18862196 215.78186755 -166 213 C-166.33 212.01 -166.66 211.02 -167 210 C-166.34 210 -165.68 210 -165 210 C-165 209.34 -165 208.68 -165 208 C-165.66 207.67 -166.32 207.34 -167 207 C-166.34 207 -165.68 207 -165 207 C-165.33 206.01 -165.66 205.02 -166 204 C-163.67495417 199.09156991 -160.35034284 194.97921191 -155.27500916 192.86470032 C-151.66340199 191.91112806 -148.64511359 191.79289837 -144.91235352 191.85229492 C-144.2302179 191.86003433 -143.54808228 191.86777374 -142.84527588 191.87574768 C-141.37368153 191.89331358 -139.90213479 191.91532793 -138.43066597 191.9413662 C-136.09690163 191.98101245 -133.76344098 192.00523373 -131.4294281 192.02497864 C-124.79691694 192.08281552 -118.16486212 192.16012859 -111.53295898 192.26733398 C-107.46713829 192.33197034 -103.40168282 192.37189267 -99.33543205 192.39650917 C-97.79204834 192.41071462 -96.24871983 192.43425062 -94.70562935 192.46751976 C-85.20481837 192.97217822 -85.20481837 192.97217822 -76.59350586 189.6184082 C-73.9506312 186.95015717 -72.68255236 185.66871894 -72 182 C-72.0306478 176.98397753 -72.89623635 173.05876785 -76 169 C-79.18355255 166.87763163 -79.98131885 166.746938 -83.63049316 166.72825623 C-84.58108109 166.7185379 -85.53166901 166.70881958 -86.51106262 166.69880676 C-87.55219711 166.69821762 -88.5933316 166.69762848 -89.66601562 166.69702148 C-90.7637883 166.68858215 -91.86156097 166.68014282 -92.99259949 166.67144775 C-96.63048724 166.64560438 -100.26829379 166.63351434 -103.90625 166.62109375 C-106.42826995 166.6049262 -108.95028359 166.587747 -111.47229004 166.56959534 C-117.4397299 166.52851917 -123.40715578 166.49553249 -129.37466478 166.46712118 C-140.69505956 166.41313493 -152.01534792 166.3450215 -163.33561707 166.26918221 C-167.05987735 166.24630185 -170.78412583 166.23006032 -174.50842285 166.21446228 C-176.78361134 166.20105775 -179.05879861 166.18744313 -181.33398438 166.17358398 C-182.37511887 166.17097061 -183.41625336 166.16835724 -184.48893738 166.16566467 C-185.4395253 166.15876617 -186.39011322 166.15186768 -187.36950684 166.14476013 C-188.19614586 166.14090522 -189.02278488 166.1370503 -189.87447357 166.13307858 C-192 166 -192 166 -195 165 C-195 164.34 -195 163.68 -195 163 C-195.99 163.33 -196.98 163.66 -198 164 C-207.16707377 155.34220811 -207.16707377 155.34220811 -207.5 148.5 C-207.28992453 144.03589631 -205.8936339 141.45628494 -203 138 C-202.38125 137.2575 -201.7625 136.515 -201.125 135.75 C-195.94544696 131.48448573 -189.95539644 131.71003056 -183.58569336 131.72875977 C-182.65650589 131.72353302 -181.72731842 131.71830627 -180.76997375 131.71292114 C-178.75987874 131.7027084 -176.74975747 131.69690551 -174.73963737 131.69503975 C-171.5577909 131.69136927 -168.37625417 131.67462523 -165.19447327 131.65428162 C-156.15078483 131.59892423 -147.10705171 131.5681461 -138.06323242 131.54370117 C-132.52545189 131.52783228 -126.98789334 131.4976251 -121.45022774 131.45893669 C-119.34153154 131.44728597 -117.23279568 131.44135634 -115.12406731 131.44125557 C-112.17744599 131.44106364 -109.23143819 131.42280774 -106.28491211 131.40063477 C-105.41464386 131.40521194 -104.54437561 131.40978912 -103.6477356 131.414505 C-98.85318483 131.35711142 -96.00708284 130.89055043 -92 128 C-91.34 128 -90.68 128 -90 128 C-88.12620066 122.26148951 -86.73503768 117.0921301 -89.125 111.25 C-92.12534845 107.64958186 -95.51330594 106.17910881 -100.14207458 105.62145996 C-101.82249596 105.6183783 -101.82249596 105.6183783 -103.53686523 105.61523438 C-104.81516708 105.60512329 -106.09346893 105.59501221 -107.4105072 105.58459473 C-108.08623213 105.58615067 -108.76195705 105.5877066 -109.45815849 105.58930969 C-111.59057568 105.59381761 -113.72217593 105.57970526 -115.85450745 105.56091309 C-120.38215865 105.52426028 -124.90972233 105.51044429 -129.4375 105.5 C-134.68441379 105.4878866 -139.93092606 105.46619704 -145.17765999 105.41999817 C-147.26878616 105.40650683 -149.35939425 105.4105839 -151.45054626 105.41540527 C-159.0596676 105.35536686 -164.73229424 105.20503002 -170.9609375 100.52734375 C-174.62942266 96.40283143 -175.95049223 92.95700518 -176.16015625 87.421875 C-175.7920012 81.85465225 -173.62738178 78.31278408 -169.625 74.625 C-164.47065433 70.22380073 -158.24793179 70.85420118 -151.82275391 70.8581543 C-150.90667862 70.85467987 -149.99060333 70.85120544 -149.04676819 70.84762573 C-147.06174956 70.84028692 -145.07672282 70.83493157 -143.09169388 70.83133507 C-139.94724166 70.82415177 -136.80294386 70.80847183 -133.65853882 70.78999329 C-124.71964613 70.7376065 -115.78083986 70.68954192 -106.84179688 70.67407227 C-101.36992864 70.66398288 -95.89845211 70.63463726 -90.42673874 70.59275246 C-88.34482157 70.58045493 -86.26284906 70.57531891 -84.18089676 70.57755089 C-81.26551835 70.5799077 -78.35126176 70.55770929 -75.43603516 70.5300293 C-74.58073715 70.53663071 -73.72543915 70.54323212 -72.84422302 70.55003357 C-67.10754188 70.46082409 -63.70845417 69.33031329 -59 66 C-57.51953703 63.63276087 -57.51953703 63.63276087 -57 61 C-56.62875 59.7315625 -56.62875 59.7315625 -56.25 58.4375 C-55.84171579 54.45672891 -57.60077735 52.57818453 -59.8125 49.375 C-64.01846198 44.80852699 -68.64218165 44.72649457 -74.54882812 44.46875 C-75.46083984 44.4378125 -76.37285156 44.406875 -77.3125 44.375 C-78.24384766 44.33632813 -79.17519531 44.29765625 -80.13476562 44.2578125 C-82.42298407 44.16393687 -84.71120295 44.07825491 -87 44 C-87.33 43.01 -87.66 42.02 -88 41 C-78.59688091 31.13569251 -67.80163013 22.03530785 -55 17 C-54.0925 16.360625 -53.185 15.72125 -52.25 15.0625 C-48.39512102 12.61613449 -44.47559637 10.95777762 -40 10 C-39.01 10.495 -39.01 10.495 -38 11 C-38 10.34 -38 9.68 -38 9 C-30.36876244 6.40434097 -23.11766052 4.02294042 -15.05859375 3.2890625 C-12.85534048 3.0744169 -12.85534048 3.0744169 -10.4375 1.875 C-6.75897085 0.55450236 -3.82597155 1.35153025 0 2 C0 1.34 0 0.68 0 0 Z M0 37 C0 37.33 0 37.66 0 38 C7.92 38 15.84 38 24 38 C24 37.67 24 37.34 24 37 C16.08 37 8.16 37 0 37 Z M1 39 C0.67 46.26 0.34 53.52 0 61 C-2.97 61.99 -5.94 62.98 -9 64 C-9.33 64.66 -9.66 65.32 -10 66 C-10.68320312 65.9175 -11.36640625 65.835 -12.0703125 65.75 C-16.00751401 66.08597453 -18.66580813 67.86140318 -21.875 70 C-22.49705322 70.4115332 -23.11910645 70.82306641 -23.76000977 71.24707031 C-28.6938671 74.6100931 -32.6077101 78.04137216 -36 83 C-36.6496875 83.85207031 -37.299375 84.70414063 -37.96875 85.58203125 C-44.84017637 95.98460729 -43.7010977 106.97655964 -43 119 C-42.34 119 -41.68 119 -41 119 C-40.9071875 119.99 -40.9071875 119.99 -40.8125 121 C-38.14165546 130.86157983 -30.13443201 137.45379635 -22 143 C-18.99992729 144.70855022 -18.99992729 144.70855022 -16 146 C-15.39929688 146.2784375 -14.79859375 146.556875 -14.1796875 146.84375 C-11.28187514 148.15322169 -9.21449481 149 -6 149 C-5.67 149.66 -5.34 150.32 -5 151 C-2.22243668 152.30708862 0.54624052 153.15606872 3.5 154 C9.93505222 155.83858635 16.31304504 158.07869729 21 163 C21.66 163 22.32 163 23 163 C27.05822628 166.55094799 29.66901638 169.47889763 30.18359375 174.953125 C30.34939698 180.21981574 29.56627803 182.91162929 26.5 187 C19.48162454 192.61470037 11.65991889 193.60597695 2.9375 193.375 C2.00873047 193.37371094 1.07996094 193.37242187 0.12304688 193.37109375 C-5.82180068 193.29600094 -11.26361592 192.54047766 -17 191 C-18.46566406 190.61328125 -18.46566406 190.61328125 -19.9609375 190.21875 C-20.75757813 189.9815625 -21.55421875 189.744375 -22.375 189.5 C-23.18710937 189.2628125 -23.99921875 189.025625 -24.8359375 188.78125 C-27 188 -27 188 -30 186 C-32.94408187 184.67516316 -34.74289462 184 -38 184 C-38.12375 185.299375 -38.2475 186.59875 -38.375 187.9375 C-38.5859375 190.15234375 -38.5859375 190.15234375 -39 192 C-39.66 192.33 -40.32 192.66 -41 193 C-41.39368517 194.92469088 -41.39368517 194.92469088 -41.5 197.1875 C-41.83844983 201.05813531 -42.68905618 204.32935729 -44 208 C-44 208.99 -44 209.98 -44 211 C-35.0736418 217.27257603 -20.82734999 220.40941727 -10 221 C-10 221.33 -10 221.66 -10 222 C-7.36 222.33 -4.72 222.66 -2 223 C-1.80367975 226.6245793 -1.61944022 230.24967267 -1.4375 233.875 C-1.35338867 235.42380859 -1.35338867 235.42380859 -1.26757812 237.00390625 C-1.21923828 237.99003906 -1.17089844 238.97617188 -1.12109375 239.9921875 C-1.0739624 240.90339355 -1.02683105 241.81459961 -0.97827148 242.75341797 C-1 245 -1 245 -2 247 C6.25 247 14.5 247 23 247 C23.33 238.09 23.66 229.18 24 220 C27.0628125 219.071875 27.0628125 219.071875 30.1875 218.125 C34.20950957 216.90620922 38.11367836 215.59748627 42 214 C42.99 213.67 43.98 213.34 45 213 C46.35824882 211.69205669 47.68456137 210.35099103 49 209 C50.27003061 207.95735478 51.54095671 206.91579991 52.8125 205.875 C60.0491314 199.56994988 66.23958418 191.11358849 67.28344727 181.34838867 C67.40208879 178.41358518 67.40943884 175.49936778 67.375 172.5625 C67.38660156 171.57701172 67.39820313 170.59152344 67.41015625 169.57617188 C67.38476442 163.19012708 66.43249911 157.90947676 64 152 C63.34 152 62.68 152 62 152 C61.73960937 151.42378906 61.47921875 150.84757812 61.2109375 150.25390625 C59.91280192 147.83769905 58.4380757 145.99205521 56.625 143.9375 C55.74714844 142.93009766 55.74714844 142.93009766 54.8515625 141.90234375 C51.99165676 138.96400178 48.91208784 136.86612949 45.3125 134.9375 C42 133 42 133 41 131 C39.00371336 130.6451046 37.00309329 130.31421071 35 130 C33.65909241 129.34870203 32.32407669 128.68486725 31 128 C30.01 128 29.02 128 28 128 C27.67 127.34 27.34 126.68 27 126 C24.85700632 125.19538288 24.85700632 125.19538288 22.3125 124.5625 C18.26109282 123.42648311 14.73468797 121.96071118 11 120 C10.34 120 9.68 120 9 120 C8.67 119.34 8.34 118.68 8 118 C6.948125 117.62875 6.948125 117.62875 5.875 117.25 C0.64850322 114.9776101 -3.82827706 111.36176573 -6 106 C-6.47584595 101.71738649 -6.27767535 99.52559976 -4.25 95.6875 C-2.18801409 93.22457238 -0.97465309 92.0623761 2 91 C2 90.34 2 89.68 2 89 C4.31 89 6.62 89 9 89 C9 88.34 9 87.68 9 87 C10.2065625 87.2784375 10.2065625 87.2784375 11.4375 87.5625 C12.283125 87.706875 13.12875 87.85125 14 88 C14.33 87.67 14.66 87.34 15 87 C19.53488372 86.76744186 19.53488372 86.76744186 22 88 C24.00800456 87.71887936 26.01014051 87.38932033 28 87 C28 87.66 28 88.32 28 89 C28.53625 88.79375 29.0725 88.5875 29.625 88.375 C32.85590901 87.86485647 34.96662837 88.86248564 38 90 C39.33219463 90.33785554 40.66565354 90.67074568 42 91 C43.56791172 91.46115051 45.13048509 91.94079938 46.6875 92.4375 C47.47511719 92.68371094 48.26273437 92.92992187 49.07421875 93.18359375 C51 94 51 94 52 96 C52.66 96 53.32 96 54 96 C54.185625 94.74703125 54.185625 94.74703125 54.375 93.46875 C55.28094693 88.44074452 56.70218707 83.57738208 58.0625 78.65625 C58.88719195 75.43995141 59.51377936 72.28198934 60 69 C52.76270821 64.80493263 46.24681948 63.07313634 38 62 C36.33066615 61.68029174 34.66295726 61.35137166 33 61 C33 60.67 33 60.34 33 60 C30.03 59.67 27.06 59.34 24 59 C23.67 52.4 23.34 45.8 23 39 C15.74 39 8.48 39 1 39 Z M56 85 C57 87 57 87 57 87 Z M-43 200 C-42 202 -42 202 -42 202 Z " fill="#05D493" transform="translate(314,1)"/>
<path d="M0 0 C1.26702255 -0.0004985 2.5340451 -0.00099701 3.83946228 -0.00151062 C6.51348572 0.00082637 9.18671125 0.00894315 11.8605957 0.02709961 C15.27911852 0.04980897 18.69719947 0.05032338 22.11577702 0.04358196 C25.38971772 0.03942849 28.66358066 0.05141909 31.9375 0.0625 C33.16155045 0.06158859 34.38560089 0.06067719 35.64674377 0.05973816 C36.78820358 0.06927017 37.92966339 0.07880219 39.10571289 0.08862305 C40.10687637 0.09323044 41.10803986 0.09783783 42.13954163 0.10258484 C45.91199308 0.45855118 48.78854547 1.44151716 51.71484375 3.86328125 C52.90234375 5.36328125 52.90234375 5.36328125 52.90234375 7.36328125 C53.89234375 7.85828125 53.89234375 7.85828125 54.90234375 8.36328125 C56.95161166 12.70290742 58.27412521 16.46306491 57.33984375 21.23828125 C54.9737941 26.38186745 51.60352472 30.2291606 46.90234375 33.36328125 C43.79062381 34.39190569 40.8825909 34.50559037 37.61816406 34.5402832 C36.03566864 34.55953606 36.03566864 34.55953606 34.42120361 34.57917786 C33.28576111 34.58656479 32.1503186 34.59395172 30.98046875 34.6015625 C29.8065155 34.60963425 28.63256226 34.61770599 27.42303467 34.62602234 C24.93828808 34.63984986 22.4535226 34.65057796 19.96875 34.65844727 C16.18062098 34.67565282 12.39336641 34.71955204 8.60546875 34.76367188 C6.18880849 34.7737999 3.77214082 34.78231566 1.35546875 34.7890625 C0.22812317 34.80657059 -0.89922241 34.82407867 -2.06072998 34.84211731 C-8.33740774 34.82491728 -14.07773464 34.52790163 -19.09765625 30.36328125 C-19.78760714 29.04184643 -20.45682785 27.70922374 -21.09765625 26.36328125 C-21.75765625 26.03328125 -22.41765625 25.70328125 -23.09765625 25.36328125 C-25.21322379 20.42695698 -26.17736409 15.42245346 -24.34765625 10.23828125 C-17.73961503 0.32621942 -11.32265105 -0.08533267 0 0 Z " fill="#05D395" transform="translate(26.09765625,132.63671875)"/>
<path d="M0 0 C2.25866771 -0.00436177 4.51536056 -0.04068314 6.77368164 -0.07861328 C15.55987833 -0.14888825 22.29967629 0.06653279 29.09204102 6.33544922 C32.99105273 11.70057433 32.99105273 11.70057433 32.83813477 15.37060547 C32.40500977 16.36060547 32.40500977 16.36060547 31.96313477 17.37060547 C32.62313477 17.70060547 33.28313477 18.03060547 33.96313477 18.37060547 C33.30313477 18.37060547 32.64313477 18.37060547 31.96313477 18.37060547 C32.25188477 19.03060547 32.54063477 19.69060547 32.83813477 20.37060547 C33.0103995 24.504959 31.31191271 26.27899024 28.89672852 29.50341797 C23.88984719 34.33834579 18.83086133 34.82005481 12.24047852 34.76904297 C11.41737686 34.77191315 10.59427521 34.77478333 9.74623108 34.77774048 C8.01408191 34.77977351 6.28190938 34.77429711 4.54980469 34.76171875 C1.90515701 34.74563297 -0.73796737 34.76160328 -3.38256836 34.78076172 C-5.07072276 34.77877955 -6.75887621 34.77493643 -8.44702148 34.76904297 C-9.23359634 34.77511566 -10.0201712 34.78118835 -10.83058167 34.78744507 C-16.34047596 34.71713324 -19.74466549 33.69676373 -23.61889648 29.76513672 C-24.7582194 28.30029297 -25.89754232 26.83544922 -27.03686523 25.37060547 C-26.70686523 24.71060547 -26.37686523 24.05060547 -26.03686523 23.37060547 C-26.69686523 23.37060547 -27.35686523 23.37060547 -28.03686523 23.37060547 C-30.11388179 19.21657235 -29.23608562 15.05029856 -27.97436523 10.74560547 C-21.87453223 0.12008991 -11.07020397 -0.00239433 0 0 Z " fill="#05D493" transform="translate(99.036865234375,192.62939453125)"/>
<path d="M0 0 C10.23 0 20.46 0 31 0 C31 0.33 31 0.66 31 1 C20.77 1 10.54 1 0 1 C0 0.67 0 0.34 0 0 Z " fill="#00FFFF" transform="translate(86,227)"/>
<path d="M0 0 C0 0.99 0 1.98 0 3 C-0.99 3 -1.98 3 -3 3 C-2.01 2.01 -1.02 1.02 0 0 Z M-4 3 C-3.34 3.66 -2.68 4.32 -2 5 C-2.99 5.99 -3.98 6.98 -5 8 C-5.66 7.67 -6.32 7.34 -7 7 C-6.01 5.68 -5.02 4.36 -4 3 Z " fill="#02E5C5" transform="translate(10,134)"/>
<path d="M0 0 C3.63 0 7.26 0 11 0 C11 0.33 11 0.66 11 1 C7.37 1 3.74 1 0 1 C0 0.67 0 0.34 0 0 Z " fill="#00FFFF" transform="translate(313,195)"/>
<path d="" fill="#00D4D4" transform="translate(0,0)"/>
<path d="M0 0 C2 1 2 1 2 1 Z " fill="#00FFFF" transform="translate(349,282)"/>
<path d="M0 0 C2 1 2 1 2 1 Z " fill="#00FFFF" transform="translate(300,282)"/>
<path d="" fill="#00BFBF" transform="translate(0,0)"/>
<path d="M0 0 C2 1 2 1 2 1 Z " fill="#00FFFF" transform="translate(350,3)"/>
<path d="M0 0 C2 1 2 1 2 1 Z " fill="#00FFFF" transform="translate(299,3)"/>
<path d="" fill="#00FFFF" transform="translate(0,0)"/>
<path d="" fill="#00FFFF" transform="translate(0,0)"/>
<path d="" fill="#00FFFF" transform="translate(0,0)"/>
<path d="" fill="#00FFFF" transform="translate(0,0)"/>
<path d="" fill="#00FFFF" transform="translate(0,0)"/>
<path d="" fill="#00FFFF" transform="translate(0,0)"/>
<path d="" fill="#00FFFF" transform="translate(0,0)"/>
<path d="" fill="#00FFFF" transform="translate(0,0)"/>
<path d="" fill="#00FFFF" transform="translate(0,0)"/>
<path d="" fill="#00FFFF" transform="translate(0,0)"/>
<path d="" fill="#00FFFF" transform="translate(0,0)"/>
</svg>
